<mxfile host="app.diagrams.net" modified="2024-01-10T00:52:37.415Z" agent="Mozilla/5.0 (Windows NT 10.0; Win64; x64; rv:121.0) Gecko/20100101 Firefox/121.0" etag="V0sWHffx9N8pqvS1TdIE" version="22.1.18" type="device">
  <diagram id="RM1cVMRYcaR0LXR-nwpB" name="Page-1">
    <mxGraphModel dx="698" dy="437" grid="1" gridSize="10" guides="1" tooltips="1" connect="1" arrows="1" fold="1" page="1" pageScale="1" pageWidth="400" pageHeight="600" math="0" shadow="0">
      <root>
        <mxCell id="0" />
        <mxCell id="1" parent="0" />
        <mxCell id="-vc72XpH6qfOp07wIX_2-1" value="" style="rounded=1;whiteSpace=wrap;html=1;strokeWidth=4;" vertex="1" parent="1">
          <mxGeometry x="10" y="10" width="380" height="580" as="geometry" />
        </mxCell>
        <mxCell id="-vc72XpH6qfOp07wIX_2-2" value="&lt;h1&gt;Dice Game&lt;br&gt;&lt;/h1&gt;&lt;p&gt;Lorem ipsum dolor sit amet, consectetur adipisicing elit, sed do eiusmod tempor incididunt ut labore et dolore magna aliqua.&lt;/p&gt;&lt;p&gt;&lt;b&gt;Lorem ipsum dolor sit amet, consectetur adipisicing elit, sed do eiusmod tempor incididunt ut labore et dolore magna aliqua.&lt;/b&gt;&lt;/p&gt;&lt;p style=&quot;font-size: 14px;&quot;&gt;Lorem ipsum dolor sit amet, consectetur adipisicing elit, sed do eiusmod tempor incididunt ut labore et dolore magna aliqua.&lt;/p&gt;&lt;p style=&quot;font-size: 14px;&quot;&gt;&lt;b&gt;Lorem ipsum dolor sit amet, consectetur adipisicing elit, sed do eiusmod tempor incididunt ut labore et dolore magna aliqua.&lt;/b&gt;&lt;/p&gt;&lt;p&gt;&lt;b&gt;&lt;br&gt;&lt;/b&gt;&lt;/p&gt;" style="text;html=1;strokeColor=none;fillColor=none;spacing=5;spacingTop=-20;whiteSpace=wrap;overflow=hidden;rounded=0;" vertex="1" parent="1">
          <mxGeometry x="60" y="20" width="310" height="320" as="geometry" />
        </mxCell>
        <mxCell id="-vc72XpH6qfOp07wIX_2-4" value="" style="shape=image;editableCssRules=.*;verticalLabelPosition=bottom;verticalAlign=top;imageAspect=0;aspect=fixed;image=data:image/svg+xml,PHN2ZyB4bWxucz0iaHR0cDovL3d3dy53My5vcmcvMjAwMC9zdmciIHdpZHRoPSIxNiIgaGVpZ2h0PSIxNiIgIGNsYXNzPSJiaSBiaS1kaWNlLTEiIHZpZXdCb3g9IjAgMCAxNiAxNiI+PHN0eWxlIHR5cGU9InRleHQvY3NzIj4uY29sb3IgeyBmaWxsOiBjdXJyZW50Q29sb3I7IH08L3N0eWxlPjxnIGNsYXNzPSJjb2xvciI+CiAgPGNpcmNsZSBjeD0iOCIgY3k9IjgiIHI9IjEuNSIvPgogIDxwYXRoIGQ9Ik0xMyAxYTIgMiAwIDAgMSAyIDJ2MTBhMiAyIDAgMCAxLTIgMkgzYTIgMiAwIDAgMS0yLTJWM2EyIDIgMCAwIDEgMi0yaDEwek0zIDBhMyAzIDAgMCAwLTMgM3YxMGEzIDMgMCAwIDAgMyAzaDEwYTMgMyAwIDAgMCAzLTNWM2EzIDMgMCAwIDAtMy0zSDN6Ii8+CjwvZz48L3N2Zz4=;strokeWidth=2;imageBackground=none;perimeterSpacing=0;" vertex="1" parent="1">
          <mxGeometry x="40" y="350" width="30" height="30" as="geometry" />
        </mxCell>
        <mxCell id="-vc72XpH6qfOp07wIX_2-5" value="" style="shape=image;editableCssRules=.*;verticalLabelPosition=bottom;verticalAlign=top;imageAspect=0;aspect=fixed;image=data:image/svg+xml,PHN2ZyB4bWxucz0iaHR0cDovL3d3dy53My5vcmcvMjAwMC9zdmciIHdpZHRoPSIxNiIgaGVpZ2h0PSIxNiIgIGNsYXNzPSJiaSBiaS1kaWNlLTIiIHZpZXdCb3g9IjAgMCAxNiAxNiI+PHN0eWxlIHR5cGU9InRleHQvY3NzIj4uY29sb3IgeyBmaWxsOiBjdXJyZW50Q29sb3I7IH08L3N0eWxlPjxnIGNsYXNzPSJjb2xvciI+CiAgPHBhdGggZD0iTTEzIDFhMiAyIDAgMCAxIDIgMnYxMGEyIDIgMCAwIDEtMiAySDNhMiAyIDAgMCAxLTItMlYzYTIgMiAwIDAgMSAyLTJoMTB6TTMgMGEzIDMgMCAwIDAtMyAzdjEwYTMgMyAwIDAgMCAzIDNoMTBhMyAzIDAgMCAwIDMtM1YzYTMgMyAwIDAgMC0zLTNIM3oiLz4KICA8cGF0aCBkPSJNNS41IDRhMS41IDEuNSAwIDEgMS0zIDAgMS41IDEuNSAwIDAgMSAzIDB6bTggOGExLjUgMS41IDAgMSAxLTMgMCAxLjUgMS41IDAgMCAxIDMgMHoiLz4KPC9nPjwvc3ZnPg==;strokeWidth=2;" vertex="1" parent="1">
          <mxGeometry x="72" y="380" width="30" height="30" as="geometry" />
        </mxCell>
        <mxCell id="-vc72XpH6qfOp07wIX_2-6" value="" style="shape=image;editableCssRules=.*;verticalLabelPosition=bottom;verticalAlign=top;imageAspect=0;aspect=fixed;image=data:image/svg+xml,PHN2ZyB4bWxucz0iaHR0cDovL3d3dy53My5vcmcvMjAwMC9zdmciIHdpZHRoPSIxNiIgaGVpZ2h0PSIxNiIgIGNsYXNzPSJiaSBiaS1kaWNlLTMiIHZpZXdCb3g9IjAgMCAxNiAxNiI+PHN0eWxlIHR5cGU9InRleHQvY3NzIj4uY29sb3IgeyBmaWxsOiBjdXJyZW50Q29sb3I7IH08L3N0eWxlPjxnIGNsYXNzPSJjb2xvciI+CiAgPHBhdGggZD0iTTEzIDFhMiAyIDAgMCAxIDIgMnYxMGEyIDIgMCAwIDEtMiAySDNhMiAyIDAgMCAxLTItMlYzYTIgMiAwIDAgMSAyLTJoMTB6TTMgMGEzIDMgMCAwIDAtMyAzdjEwYTMgMyAwIDAgMCAzIDNoMTBhMyAzIDAgMCAwIDMtM1YzYTMgMyAwIDAgMC0zLTNIM3oiLz4KICA8cGF0aCBkPSJNNS41IDRhMS41IDEuNSAwIDEgMS0zIDAgMS41IDEuNSAwIDAgMSAzIDB6bTggOGExLjUgMS41IDAgMSAxLTMgMCAxLjUgMS41IDAgMCAxIDMgMHptLTQtNGExLjUgMS41IDAgMSAxLTMgMCAxLjUgMS41IDAgMCAxIDMgMHoiLz4KPC9nPjwvc3ZnPg==;strokeWidth=2;" vertex="1" parent="1">
          <mxGeometry x="102" y="410" width="30" height="30" as="geometry" />
        </mxCell>
        <mxCell id="-vc72XpH6qfOp07wIX_2-7" value="" style="shape=image;editableCssRules=.*;verticalLabelPosition=bottom;verticalAlign=top;imageAspect=0;aspect=fixed;image=data:image/svg+xml,PHN2ZyB4bWxucz0iaHR0cDovL3d3dy53My5vcmcvMjAwMC9zdmciIHdpZHRoPSIxNiIgaGVpZ2h0PSIxNiIgIGNsYXNzPSJiaSBiaS1kaWNlLTQiIHZpZXdCb3g9IjAgMCAxNiAxNiI+PHN0eWxlIHR5cGU9InRleHQvY3NzIj4uY29sb3IgeyBmaWxsOiBjdXJyZW50Q29sb3I7IH08L3N0eWxlPjxnIGNsYXNzPSJjb2xvciI+CiAgPHBhdGggZD0iTTEzIDFhMiAyIDAgMCAxIDIgMnYxMGEyIDIgMCAwIDEtMiAySDNhMiAyIDAgMCAxLTItMlYzYTIgMiAwIDAgMSAyLTJoMTB6TTMgMGEzIDMgMCAwIDAtMyAzdjEwYTMgMyAwIDAgMCAzIDNoMTBhMyAzIDAgMCAwIDMtM1YzYTMgMyAwIDAgMC0zLTNIM3oiLz4KICA8cGF0aCBkPSJNNS41IDRhMS41IDEuNSAwIDEgMS0zIDAgMS41IDEuNSAwIDAgMSAzIDB6bTggMGExLjUgMS41IDAgMSAxLTMgMCAxLjUgMS41IDAgMCAxIDMgMHptMCA4YTEuNSAxLjUgMCAxIDEtMyAwIDEuNSAxLjUgMCAwIDEgMyAwem0tOCAwYTEuNSAxLjUgMCAxIDEtMyAwIDEuNSAxLjUgMCAwIDEgMyAweiIvPgo8L2c+PC9zdmc+;strokeWidth=2;" vertex="1" parent="1">
          <mxGeometry x="132" y="438" width="32" height="32" as="geometry" />
        </mxCell>
        <mxCell id="-vc72XpH6qfOp07wIX_2-8" value="" style="shape=image;editableCssRules=.*;verticalLabelPosition=bottom;verticalAlign=top;imageAspect=0;aspect=fixed;image=data:image/svg+xml,PHN2ZyB4bWxucz0iaHR0cDovL3d3dy53My5vcmcvMjAwMC9zdmciIHdpZHRoPSIxNiIgaGVpZ2h0PSIxNiIgIGNsYXNzPSJiaSBiaS1kaWNlLTUiIHZpZXdCb3g9IjAgMCAxNiAxNiI+PHN0eWxlIHR5cGU9InRleHQvY3NzIj4uY29sb3IgeyBmaWxsOiBjdXJyZW50Q29sb3I7IH08L3N0eWxlPjxnIGNsYXNzPSJjb2xvciI+CiAgPHBhdGggZD0iTTEzIDFhMiAyIDAgMCAxIDIgMnYxMGEyIDIgMCAwIDEtMiAySDNhMiAyIDAgMCAxLTItMlYzYTIgMiAwIDAgMSAyLTJoMTB6TTMgMGEzIDMgMCAwIDAtMyAzdjEwYTMgMyAwIDAgMCAzIDNoMTBhMyAzIDAgMCAwIDMtM1YzYTMgMyAwIDAgMC0zLTNIM3oiLz4KICA8cGF0aCBkPSJNNS41IDRhMS41IDEuNSAwIDEgMS0zIDAgMS41IDEuNSAwIDAgMSAzIDB6bTggMGExLjUgMS41IDAgMSAxLTMgMCAxLjUgMS41IDAgMCAxIDMgMHptMCA4YTEuNSAxLjUgMCAxIDEtMyAwIDEuNSAxLjUgMCAwIDEgMyAwem0tOCAwYTEuNSAxLjUgMCAxIDEtMyAwIDEuNSAxLjUgMCAwIDEgMyAwem00LTRhMS41IDEuNSAwIDEgMS0zIDAgMS41IDEuNSAwIDAgMSAzIDB6Ii8+CjwvZz48L3N2Zz4=;strokeWidth=2;" vertex="1" parent="1">
          <mxGeometry x="164" y="470" width="30" height="30" as="geometry" />
        </mxCell>
        <mxCell id="-vc72XpH6qfOp07wIX_2-9" value="" style="shape=image;editableCssRules=.*;verticalLabelPosition=bottom;verticalAlign=top;imageAspect=0;aspect=fixed;image=data:image/svg+xml,PHN2ZyB4bWxucz0iaHR0cDovL3d3dy53My5vcmcvMjAwMC9zdmciIHdpZHRoPSIxNiIgaGVpZ2h0PSIxNiIgIGNsYXNzPSJiaSBiaS1kaWNlLTYiIHZpZXdCb3g9IjAgMCAxNiAxNiI+PHN0eWxlIHR5cGU9InRleHQvY3NzIj4uY29sb3IgeyBmaWxsOiBjdXJyZW50Q29sb3I7IH08L3N0eWxlPjxnIGNsYXNzPSJjb2xvciI+CiAgPHBhdGggZD0iTTEzIDFhMiAyIDAgMCAxIDIgMnYxMGEyIDIgMCAwIDEtMiAySDNhMiAyIDAgMCAxLTItMlYzYTIgMiAwIDAgMSAyLTJoMTB6TTMgMGEzIDMgMCAwIDAtMyAzdjEwYTMgMyAwIDAgMCAzIDNoMTBhMyAzIDAgMCAwIDMtM1YzYTMgMyAwIDAgMC0zLTNIM3oiLz4KICA8cGF0aCBkPSJNNS41IDRhMS41IDEuNSAwIDEgMS0zIDAgMS41IDEuNSAwIDAgMSAzIDB6bTggMGExLjUgMS41IDAgMSAxLTMgMCAxLjUgMS41IDAgMCAxIDMgMHptMCA4YTEuNSAxLjUgMCAxIDEtMyAwIDEuNSAxLjUgMCAwIDEgMyAwem0wLTRhMS41IDEuNSAwIDEgMS0zIDAgMS41IDEuNSAwIDAgMSAzIDB6bS04IDRhMS41IDEuNSAwIDEgMS0zIDAgMS41IDEuNSAwIDAgMSAzIDB6bTAtNGExLjUgMS41IDAgMSAxLTMgMCAxLjUgMS41IDAgMCAxIDMgMHoiLz4KPC9nPjwvc3ZnPg==;strokeWidth=2;" vertex="1" parent="1">
          <mxGeometry x="194" y="500" width="30" height="30" as="geometry" />
        </mxCell>
      </root>
    </mxGraphModel>
  </diagram>
</mxfile>
